<svg width="16" height="16" viewBox="0 0 16 16" fill="none" xmlns="http://www.w3.org/2000/svg">
<mask id="path-1-inside-1_308_200" fill="white">
<path d="M0 8H16C16 12.4183 12.4183 16 8 16C3.58172 16 0 12.4183 0 8Z"/>
</mask>
<path d="M0 8H16H0ZM23 8C23 16.2843 16.2843 23 8 23C-0.284271 23 -7 16.2843 -7 8H7C7 8.55228 7.44772 9 8 9C8.55229 9 9 8.55228 9 8H23ZM8 23C-0.284271 23 -7 16.2843 -7 8H7C7 8.55228 7.44772 9 8 9V23ZM23 8C23 16.2843 16.2843 23 8 23V9C8.55229 9 9 8.55228 9 8H23Z" fill="#EFF0EF" mask="url(#path-1-inside-1_308_200)"/>
<mask id="path-3-inside-2_308_200" fill="white">
<path d="M0 8C0 3.58172 3.58172 0 8 0C12.4183 0 16 3.58172 16 8H0Z"/>
</mask>
<path d="M-7 8C-7 -0.284271 -0.284271 -7 8 -7C16.2843 -7 23 -0.284271 23 8H9C9 7.44772 8.55229 7 8 7C7.44772 7 7 7.44772 7 8H-7ZM16 8H0H16ZM-7 8C-7 -0.284271 -0.284271 -7 8 -7V7C7.44772 7 7 7.44772 7 8H-7ZM8 -7C16.2843 -7 23 -0.284271 23 8H9C9 7.44772 8.55229 7 8 7V-7Z" fill="#CF1111" mask="url(#path-3-inside-2_308_200)"/>
<rect x="0.5" y="0.5" width="15" height="15" rx="7.5" stroke="#0A0A0A"/>
<line x1="0.666992" y1="8.16666" x2="5.33366" y2="8.16666" stroke="#0A0A0A"/>
<line x1="10.667" y1="8.16666" x2="15.3337" y2="8.16666" stroke="#0A0A0A"/>
<path d="M5.16699 7.99999C5.16699 6.43518 6.43552 5.16666 8.00033 5.16666C9.56513 5.16666 10.8337 6.43518 10.8337 7.99999C10.8337 9.5648 9.56513 10.8333 8.00033 10.8333C6.43552 10.8333 5.16699 9.5648 5.16699 7.99999Z" fill="#D9D9D9" stroke="#0A0A0A"/>
</svg>
